<?xml version="1.0" encoding="utf-8"?>
<!-- Generator: Adobe Illustrator 28.1.0, SVG Export Plug-In . SVG Version: 6.00 Build 0)  -->
<svg version="1.1" id="레이어_1" xmlns="http://www.w3.org/2000/svg" xmlns:xlink="http://www.w3.org/1999/xlink" x="0px"
	 y="0px" viewBox="0 0 1835.8 566.9" style="enable-background:new 0 0 1835.8 566.9;" xml:space="preserve">
<g>
	<path d="M481.8,98.7l-66,369.5h132.3L614,98.7H481.8z M659.6,98.7L642,197.5h161.2L593.6,468.2H744l114.1-147.5l-26.3,147.5h132.2
		l33-184.7h-110l143-184.8L659.6,98.7z M436.2,98.7H286L362.4,0H212.1l-143,184.7h150.3L0,468.2h150.3l114.1-147.5l-26.3,147.5
		h132.2l33-184.7h-110L436.2,98.7z M1075.5,98.7l-66,369.5h132.2l66-369.5H1075.5z M1253.2,98.7l-17.5,98.8h160.3l-208.6,270.7
		h150.2l112.8-146.3l-26.1,146.3h132.3l33-184.7H1480l142.4-184.8L1253.2,98.7z M1750.3,369.4l48.3-270.7h-132.2l-66,369.5h85.5
		l-17.6,98.7h132.3l35.2-197.5L1750.3,369.4z"/>
</g>
</svg>
