<?xml version="1.0" encoding="UTF-8"?>
<svg id="_레이어_2" data-name="레이어 2" xmlns="http://www.w3.org/2000/svg" viewBox="0 0 1331.09 192.85">
  <defs>
    <style>
      .cls-1 {
        fill: #070b85;
      }

      .cls-2 {
        fill: #070b8a;
      }
    </style>
  </defs>
  <g id="dark">
    <path class="cls-1" d="m75.54,59.76h22.24v131.98h-22.24v-63.28h-20.95v-23.09h20.95v-45.61Zm-30.79,31.5v-28.51h-23.38v26.94c.29,39.48-5.13,56.16-21.38,69.13v28.22c14.82-8.69,26.51-19.38,32.92-35.06,6.56,15.68,18.39,26.37,33.21,35.06v-28.22c-16.11-12.83-21.38-29.08-21.38-67.56Zm60.86,100.48h22.81V59.76h-22.81v131.98Zm162.48-25.08c0,14.68-12.26,25.8-27.94,25.8h-63.57c-15.39,0-27.65-11.12-27.65-25.8s12.26-25.8,27.65-25.8h63.57c15.68,0,27.94,10.69,27.94,25.8Zm-27.08,0c0-4.56-3.56-6.13-8.69-6.13h-48.03c-4.56,0-8.27,1.57-8.27,6.13,0,4.13,3.71,5.99,8.27,5.99h48.03c5.13,0,8.69-1.85,8.69-5.99Zm-56.02-59.44c8.12,12.4,23.09,21.38,42.19,25.66v-23.38c-18.81-5.7-28.79-19.95-28.79-38.48v-10.4h-26.94v10.4c0,18.67-9.83,34.21-28.79,39.91v23.38c19.24-4.56,34.35-13.97,42.33-27.08Zm79.96-47.46h-27.08v77.82h27.08v-30.22h15.68v-22.52h-15.68v-25.09Zm149.37,61.72h-130.7v20.95h130.7v-20.95Zm-126.28-35.63c0-14.68,10.69-26.51,23.95-26.51h73.97c13.11,0,23.95,11.83,23.95,26.51s-10.83,26.37-23.95,26.37h-73.97c-13.26,0-23.95-11.69-23.95-26.37Zm25.37-.14c0,3.42,2.42,5.99,5.7,5.99h59.58c3.28,0,5.7-2.57,5.7-5.99s-2.42-5.84-5.7-5.84h-59.58c-3.28,0-5.7,2.57-5.7,5.84Zm323.43,13.07c0-20.95,14.82-37.77,35.78-37.77h50.6c21.09,0,35.92,16.82,35.92,37.77s-14.82,37.63-35.92,37.63h-50.6c-20.95,0-35.78-16.68-35.78-37.63Zm27.65,0c0,9.12,6.41,15.82,15.54,15.82h36.06c9.12,0,15.54-6.7,15.54-15.82s-6.41-15.54-15.54-15.54h-36.06c-9.12,0-15.54,6.56-15.54,15.54Zm236.88,11.26h-93.22v-7.27h91.79v-41.05h-118.87v17.39h91.93v7.13h-91.93v41.9h120.3v-18.1Zm-126.14,48.6h26.08l-8.12,33.5h27.37l7.98-33.5h26.8v33.5h26.65v-33.5h23.95v-21.95h-130.7v21.95Zm267.24-96.92h-118.87v17.67h118.87v-17.67Zm-124.72,97.21h51.45v33.92h27.65v-33.92h51.6v-21.95h-130.7v21.95Zm126.14-48.46h-92.79v-7.98h90.79v-16.96h-118.3v42.9h120.3v-17.96Zm117.44,26.8h27.08V59.43h-27.08v18.24h-28.22v21.67h28.22v37.91Zm-57.44-26.8c8.12,11.83,22.8,20.24,41.76,24.37v-24.09c-18.67-5.56-28.51-16.96-28.51-35.06v-15.39h-26.8v15.39c0,18.1-9.83,30.79-28.51,36.35v23.52c19.1-4.42,33.92-12.97,42.05-25.09Zm86.38,55.73c0,14.82-12.26,25.94-27.94,25.94h-66.14c-15.39,0-27.65-11.12-27.65-25.94s12.26-25.8,27.65-25.8h66.14c15.68,0,27.94,10.69,27.94,25.8Zm-27.08,0c0-4.56-3.56-6.13-8.55-6.13h-50.74c-4.56,0-8.27,1.57-8.27,6.13,0,4.28,3.71,6.13,8.27,6.13h50.74c4.99,0,8.55-1.85,8.55-6.13Zm140.25-106.76v131.98h27.65V59.43h-27.65Zm-17.96,36.92v57.73c0,20.67-17.82,34.92-39.91,34.92s-39.48-14.25-39.48-34.92v-57.73c0-20.81,17.53-34.92,39.48-34.92s39.91,14.11,39.91,34.92Zm-25.8-1.43c0-5.99-5.7-11.83-13.68-11.83s-13.68,5.84-13.68,11.83v60.43c0,6.41,5.56,11.69,13.68,11.69s13.68-5.27,13.68-11.69v-60.43Zm-547.52,46.09h-28.08v31.26h-367.92v-23h-27v43h474v-20h-51v-31.26Z"/>
    <g id="face">
      <path class="cls-2" d="m498.36,62.41c-3.93,0-7.28-1.39-10.06-4.17-2.78-2.78-4.17-6.13-4.17-10.06s1.39-7.28,4.17-10.06c2.78-2.78,6.13-4.17,10.06-4.17s7.25,1.39,9.98,4.17c2.72,2.78,4.09,6.13,4.09,10.06s-1.36,7.28-4.09,10.06c-2.73,2.78-6.05,4.17-9.98,4.17Zm0,53.82c-3.93,0-7.28-1.39-10.06-4.17-2.78-2.78-4.17-6.13-4.17-10.06s1.39-7.25,4.17-9.98c2.78-2.72,6.13-4.09,10.06-4.09s7.25,1.36,9.98,4.09c2.72,2.73,4.09,6.05,4.09,9.98s-1.36,7.28-4.09,10.06c-2.73,2.78-6.05,4.17-9.98,4.17Z"/>
      <path class="cls-2" d="m575.93,11.12c-7.09,8.83-12.79,18.54-17.09,29.12-4.31,10.58-6.46,22.14-6.46,34.68s2.15,24.1,6.46,34.68c4.31,10.58,10,20.28,17.09,29.12l-16.2,11.12c-3.27-3.6-6.63-8.02-10.06-13.25-3.44-5.23-6.54-11.07-9.32-17.5-2.78-6.43-5.05-13.39-6.79-20.86-1.75-7.47-2.62-15.24-2.62-23.31s.87-15.84,2.62-23.31c1.74-7.47,4.01-14.42,6.79-20.86,2.78-6.43,5.89-12.27,9.32-17.5s6.79-9.65,10.06-13.25l16.2,11.12Z"/>
    </g>
  </g>
</svg>