<?xml version="1.0" encoding="UTF-8"?>
<svg id="Layer_1" data-name="Layer 1" xmlns="http://www.w3.org/2000/svg" viewBox="0 0 153.14 178">
  <defs>
    <style>
      .cls-1 {
        fill: #fff;
        stroke-width: 0px;
      }
    </style>
  </defs>
  <path class="cls-1" d="m119.16,82.5c-.77-.37-1.55-.72-2.33-1.06-1.37-25.32-15.21-39.81-38.43-39.96-.1,0-.21,0-.32,0-13.89,0-25.45,5.93-32.56,16.72l12.77,8.76c5.31-8.06,13.65-9.78,19.79-9.78h.21c7.65.05,13.42,2.27,17.15,6.61,2.72,3.16,4.54,7.52,5.44,13.03-6.78-1.15-14.11-1.51-21.95-1.06-22.08,1.27-36.28,14.15-35.33,32.05.48,9.08,5.01,16.89,12.73,21.99,6.53,4.31,14.95,6.42,23.69,5.94,11.55-.63,20.61-5.04,26.93-13.1,4.8-6.12,7.84-14.05,9.18-24.04,5.5,3.32,9.58,7.69,11.84,12.95,3.83,8.93,4.05,23.61-7.92,35.58-10.49,10.48-23.11,15.02-42.17,15.16-21.15-.16-37.14-6.94-47.54-20.16-9.74-12.38-14.77-30.26-14.96-53.14.19-22.88,5.22-40.76,14.96-53.14,10.4-13.22,26.39-20,47.54-20.16,21.3.16,37.57,6.97,48.37,20.25,5.29,6.51,9.28,14.7,11.92,24.25l14.97-3.99c-3.19-11.76-8.21-21.88-15.04-30.29C124.26,8.91,104.02.18,77.94,0h-.1C51.81.18,31.79,8.94,18.35,26.03,6.38,41.24.21,62.41,0,88.94v.06s0,.06,0,.06c.21,26.53,6.38,47.7,18.35,62.91,13.45,17.09,33.46,25.85,59.49,26.03h.1c23.14-.16,39.45-6.22,52.89-19.64,17.58-17.56,17.05-39.58,11.26-53.09-4.16-9.69-12.08-17.56-22.92-22.76m-39.95,37.56c-9.68.55-19.73-3.8-20.23-13.1-.37-6.9,4.91-14.6,20.82-15.51,1.82-.11,3.61-.16,5.37-.16,5.78,0,11.19.56,16.1,1.64-1.83,22.9-12.59,26.62-22.07,27.14"/>
</svg>